<?xml version="1.0" encoding="UTF-8" standalone="no"?>
<!DOCTYPE svg PUBLIC "-//W3C//DTD SVG 1.1//EN" "http://www.w3.org/Graphics/SVG/1.1/DTD/svg11.dtd">
<svg width="150" height="150" viewBox="-75 -75 150 150" xmlns="http://www.w3.org/2000/svg" xmlns:xlink="http://www.w3.org/1999/xlink">
	<rect fill="#444" stroke="#000" x="-75" y="-75" width="150" height="150"/>
	<circle cx="-33" cy="-33" r="32" fill="#3eec57" stroke="black" stroke-width="10" />
	<circle cx="33" cy="-33" r="32" fill="#c400ff" stroke="black" stroke-width="10" />
	<circle cx="33" cy="33" r="32" fill="#2495ff" stroke="black" stroke-width="10" />
	<circle cx="-33" cy="33" r="32" fill="#bcbcbc" stroke="black" stroke-width="10" />
	<circle cx="0" cy="0" r="32" fill="#ff9500" stroke="black" stroke-width="10" />
	<g transform="scale(0.75, 0.75) translate(23, 21)">
		<path fill="#ff6968" stroke="black" stroke-width="7"
			d="M 12,-24 l 20,20 l 20,-20 a 8.485 8.485 180 0 1 12,12 l -32,32 l -32,-32 a 8.485 8.485 180 0 1 12,-12 z"
		/>
		<path fill="#ffb396" stroke="black" stroke-width="7"
			d="M 12,0 l 20,20 l 20,-20 a 8.485 8.485 180 0 1 12,12 l -32,32 l -32,-32 a 8.485 8.485 180 0 1 12,-12 z"
		/>
		<path fill="#ffffff" stroke="black" stroke-width="7"
			d="M 12,24 l 20,20 l 20,-20 a 8.485 8.485 180 0 1 12,12 l -32,32 l -32,-32 a 8.485 8.485 180 0 1 12,-12 z"
		/>
	</g>
</svg>
